<svg width="475" height="475" viewBox="0 0 475 475" fill="none" xmlns="http://www.w3.org/2000/svg">
<rect width="475" height="475"/>
<path fill-rule="evenodd" clip-rule="evenodd" d="M316.489 73.6583C322.347 67.8005 331.844 67.8005 337.702 73.6583L401.342 137.298C407.2 143.156 407.2 152.653 401.342 158.511L330.631 229.222C324.773 235.08 315.276 235.08 309.418 229.222L298.811 218.615L354.673 162.754L312.246 120.327L256.385 176.189L245.778 165.582C239.92 159.724 239.92 150.227 245.778 144.369L316.489 73.6583ZM177.189 255.385L256.385 176.189L298.811 218.615L219.615 297.811L177.189 255.385ZM177.189 255.385L121.327 311.246L163.754 353.673L219.615 297.811L230.222 308.418C236.08 314.276 236.08 323.773 230.222 329.631L159.511 400.342C153.653 406.2 144.156 406.2 138.298 400.342L74.6583 336.702C68.8005 330.844 68.8005 321.347 74.6583 315.489L145.369 244.778C151.227 238.92 160.724 238.92 166.582 244.778L177.189 255.385Z" fill="black"/>
</svg>
